<svg width="75" height="74" viewBox="0 0 75 74" fill="none" xmlns="http://www.w3.org/2000/svg">
<g clip-path="url(#clip0_370726_440)" filter="url(#filter0_d_370726_440)">
<path d="M44.8281 49.0746H15.0707V35.0625C15.0707 30.0996 19.1535 26.0777 24.1916 26.0777H44.8281V49.0746Z" fill="#CEE8FA"/>
<path d="M44.8281 50.9437H15.0707C14.0238 50.9437 13.1732 50.1058 13.1732 49.0746V35.0625C13.1732 29.0812 18.1197 24.2086 24.1916 24.2086H44.8281C45.875 24.2086 46.7256 25.0465 46.7256 26.0777V49.0746C46.7256 50.1058 45.875 50.9437 44.8281 50.9437ZM16.9681 47.2054H42.9176V27.9597H24.1785C20.2004 27.9597 16.9681 31.1437 16.9681 35.0625V47.2054Z" fill="#2D527C"/>
<path d="M64.4439 34.2633H10.5561C6.94434 34.2633 4 31.3629 4 27.7922V21.9785C4 18.4207 6.94434 15.5203 10.5561 15.5203H24.1262C25.173 15.5203 26.0236 16.3582 26.0236 17.3894C26.0236 18.4207 25.173 19.2586 24.1262 19.2586H10.5561C9.03809 19.2586 7.79492 20.4832 7.79492 21.9785V27.7922C7.79492 29.2875 9.03809 30.5121 10.5561 30.5121H64.4309C65.9488 30.5121 67.192 29.2875 67.192 27.7922V21.9785C67.192 20.4832 65.9488 19.2586 64.4309 19.2586H37.5C36.4531 19.2586 35.6025 18.4207 35.6025 17.3894C35.6025 16.3582 36.4531 15.5203 37.5 15.5203H64.4439C68.0557 15.5203 71 18.4207 71 21.9785V27.7922C71 31.3629 68.0557 34.2633 64.4439 34.2633Z" fill="#F0BF5F"/>
<path d="M37.5 19.1555C36.9111 19.1555 36.3484 18.8977 35.9689 18.3949C35.3408 17.557 35.524 16.384 36.3615 15.7781C38.1543 14.4633 41.8707 11.0086 41.8707 8.70117C41.8707 6.20039 40.0256 4.3957 37.5 4.3957C35.0922 4.3957 33.1293 6.3293 33.1293 8.70117C33.1293 9.73242 32.2787 10.5703 31.2318 10.5703C30.1849 10.5703 29.3344 9.73242 29.3344 8.70117V8.53359C29.3344 8.48203 29.3343 8.43047 29.3474 8.37891C29.5045 4.07344 33.1031 0.644531 37.5 0.644531C42.1586 0.644531 45.6787 4.11211 45.6787 8.70117C45.6787 13.5223 39.3582 18.266 38.6254 18.7945C38.2851 19.0395 37.8926 19.1555 37.5 19.1555Z" fill="#F0BF5F"/>
<path d="M51.5412 61.2562H26.377C25.3301 61.2562 24.4795 60.4183 24.4795 59.3871V49.0875C24.4795 48.0562 25.3301 47.2183 26.377 47.2183H59.9424C60.9893 47.2183 61.8398 48.0562 61.8398 49.0875C61.8398 50.1187 60.9893 50.9566 59.9424 50.9566H28.2744V57.5179H51.5412C52.5881 57.5179 53.4387 58.3558 53.4387 59.3871C53.4387 60.4183 52.5881 61.2562 51.5412 61.2562Z" fill="#2D527C"/>
<path d="M59.9293 49.0746V33.5672C59.9293 29.4293 56.5269 26.0777 52.3264 26.0777H26.377V49.0746H59.9293Z" fill="#CEE8FA"/>
<path d="M59.9293 50.9437H26.377C25.3301 50.9437 24.4795 50.1059 24.4795 49.0746V26.0906C24.4795 25.0594 25.3301 24.2215 26.377 24.2215H52.3395C57.5738 24.2215 61.8398 28.4238 61.8398 33.5801V49.0875C61.8398 50.1059 60.9762 50.9437 59.9293 50.9437ZM28.2744 47.2055H58.0318V33.5672C58.0318 30.4734 55.4801 27.9597 52.3395 27.9597H28.2744V47.2055Z" fill="#2D527C"/>
<path d="M26.377 65.3554C25.3301 65.3554 24.4795 64.5175 24.4795 63.4863V59.3871C24.4795 58.3558 25.3301 57.5179 26.377 57.5179C27.4238 57.5179 28.2744 58.3558 28.2744 59.3871V63.4863C28.2744 64.5175 27.4238 65.3554 26.377 65.3554Z" fill="#2D527C"/>
<path d="M59.9293 65.3554C58.8824 65.3554 58.0319 64.5176 58.0319 63.4863V47.8758C58.0319 46.8445 58.8824 46.0066 59.9293 46.0066C60.9762 46.0066 61.8268 46.8445 61.8268 47.8758V63.4863C61.8399 64.5176 60.9762 65.3554 59.9293 65.3554Z" fill="#2D527C"/>
<path d="M51.5412 65.3554C50.4943 65.3554 49.6437 64.5175 49.6437 63.4863V59.3871C49.6437 58.3558 50.4943 57.5179 51.5412 57.5179C52.5881 57.5179 53.4387 58.3558 53.4387 59.3871V63.4863C53.4387 64.5175 52.5881 65.3554 51.5412 65.3554Z" fill="#2D527C"/>
<path d="M43.1531 65.3554C42.1063 65.3554 41.2557 64.5175 41.2557 63.4863V59.3871C41.2557 58.3558 42.1063 57.5179 43.1531 57.5179C44.2 57.5179 45.0506 58.3558 45.0506 59.3871V63.4863C45.0506 64.5175 44.2 65.3554 43.1531 65.3554Z" fill="#2D527C"/>
<path d="M34.765 65.3554C33.7181 65.3554 32.8676 64.5175 32.8676 63.4863V59.3871C32.8676 58.3558 33.7181 57.5179 34.765 57.5179C35.8119 57.5179 36.6625 58.3558 36.6625 59.3871V63.4863C36.6625 64.5175 35.8119 65.3554 34.765 65.3554Z" fill="#2D527C"/>
</g>
<defs>
<filter id="filter0_d_370726_440" x="0" y="0" width="75" height="74" filterUnits="userSpaceOnUse" color-interpolation-filters="sRGB">
<feFlood flood-opacity="0" result="BackgroundImageFix"/>
<feColorMatrix in="SourceAlpha" type="matrix" values="0 0 0 0 0 0 0 0 0 0 0 0 0 0 0 0 0 0 127 0" result="hardAlpha"/>
<feOffset dy="4"/>
<feGaussianBlur stdDeviation="2"/>
<feComposite in2="hardAlpha" operator="out"/>
<feColorMatrix type="matrix" values="0 0 0 0 0 0 0 0 0 0 0 0 0 0 0 0 0 0 0.25 0"/>
<feBlend mode="normal" in2="BackgroundImageFix" result="effect1_dropShadow_370726_440"/>
<feBlend mode="normal" in="SourceGraphic" in2="effect1_dropShadow_370726_440" result="shape"/>
</filter>
<clipPath id="clip0_370726_440">
<rect width="67" height="66" fill="white" transform="translate(4)"/>
</clipPath>
</defs>
</svg>
